<svg fill="none" height="374" viewBox="0 0 1875 374" width="1875" xmlns="http://www.w3.org/2000/svg" xmlns:xlink="http://www.w3.org/1999/xlink"><clipPath id="a"><path d="m0 .09375h1116v373.5h-1116z"/></clipPath><g fill="#000"><path d="m1209.7 94.3075h34.41l57.44 127.0545 57.44-127.0545h34.41v185.2885h-31.76v-128.379l-44.73 100.056h-30.97l-44.74-100.056v128.379h-31.5zm258.72 187.4055c-15.52 0-27.61-4.764-36.26-14.293-8.47-9.529-12.7-22.764-12.7-39.705v-84.968h30.44v75.439c0 12.882 2.2 22.323 6.61 28.323 4.41 5.823 11.21 8.735 20.38 8.735 9.89 0 17.65-3.177 23.3-9.53 5.64-6.352 8.47-15.087 8.47-26.205v-76.762h30.7v136.849h-30.7v-19.853c-4.06 7.059-9.62 12.529-16.68 16.412-6.88 3.705-14.73 5.558-23.56 5.558zm148.18 0c-26.29 0-45.09-9.705-56.38-29.116l23.03-15.353c4.59 6.529 9.35 11.294 14.29 14.294 4.94 2.823 11.12 4.235 18.53 4.235 7.24 0 12.97-1.324 17.21-3.971 4.23-2.823 6.35-6.705 6.35-11.646 0-3.882-1.24-6.971-3.71-9.265s-6.53-4.058-12.17-5.294l-24.09-5.823c-11.12-2.647-19.59-7.147-25.41-13.499-5.65-6.53-8.47-14.559-8.47-24.088 0-7.764 2.21-14.823 6.62-21.176 4.41-6.352 10.5-11.294 18.26-14.823 7.94-3.706 16.76-5.558 26.47-5.558 12.88 0 23.65 2.294 32.29 6.882 8.65 4.588 15.62 11.558 20.91 20.911l-23.02 14.029c-3.18-5.471-7.06-9.529-11.65-12.176s-10.5-3.971-17.74-3.971c-6.7 0-12.08 1.324-16.14 3.971-3.88 2.47-5.83 5.911-5.83 10.323 0 3.882 1.15 6.97 3.45 9.264 2.47 2.118 6.7 3.882 12.7 5.294l23.03 5.294c23.12 5.294 34.68 17.558 34.68 36.793 0 13.411-4.86 24.176-14.56 32.293-9.71 8.118-22.59 12.176-38.65 12.176zm92.24-160.142c-5.65 0-10.32-1.853-14.03-5.558-3.53-3.706-5.29-8.206-5.29-13.5 0-5.2939 1.85-9.7055 5.56-13.2348 3.7-3.7057 8.29-5.5586 13.76-5.5586 5.65 0 10.23 1.8529 13.76 5.5586 3.71 3.5293 5.56 7.9409 5.56 13.2348 0 5.294-1.85 9.794-5.56 13.5-3.53 3.705-8.11 5.558-13.76 5.558zm-15.35 21.176h30.7v136.849h-30.7zm118.41 138.966c-20.47 0-36.61-6.264-48.44-18.793-11.64-12.529-17.47-29.47-17.47-50.822 0-14.117 2.83-26.558 8.48-37.322 5.64-10.765 13.58-19.147 23.82-25.147 10.23-6 22.14-8.999 35.73-8.999 12 0 22.77 2.823 32.3 8.47 9.7 5.47 17.02 13.058 21.96 22.764l-23.29 14.823c-3.88-7.059-8.29-12.176-13.23-15.353-4.94-3.176-10.94-4.764-18-4.764-11.65 0-20.65 3.97-27 11.911-6.18 7.765-9.27 18.97-9.27 33.617 0 13.941 3.18 24.705 9.53 32.293 6.53 7.411 15.53 11.117 27 11.117 7.24 0 13.33-1.676 18.27-5.029 5.11-3.529 9.79-8.911 14.03-16.147l22.76 15.882c-6 10.235-13.85 18.088-23.56 23.558-9.53 5.294-20.73 7.941-33.62 7.941z"/><g clip-path="url(#a)"><path d="m365.842 11.1027v351.5183h-354.9136v-351.5183zm10.93-11.00895h-376.77297656v373.46325h376.77297656z"/><path d="m376.882 11.0661h362.2v351.5549h-362.2zm-10.93-10.97235v373.46325h384.059v-373.46325z"/><path d="m1105.07 11.1027v351.5183h-354.768v-351.5183zm10.93-11.00895h-376.627v373.46325h376.627z"/><path d="m206.345 79.3874c-26.777.0732-53.627 9.6923-61.459 36.5746l-2.769-31.7833h-42.042v205.1833h47.361v-126.402c0-21.908 18.398-41 41.204-41.146 23.461-.256 41.167 17.153 41.167 43.158v124.39h48.017v-123.732c-.656-48.863-17.269-86.3889-71.515-86.2792z"/><path d="m992.022 84.2519c-48.818-13.6789-73.883 11.9965-79.202 31.7471l-2.805-31.8202h-42.005v205.0012h47.36v-123.696c0-30.028 26.559-45.645 47.434-43.377 16.758 1.828 23.28 6.912 29.218 10.167z"/><path d="m568.291 79.2768c-27.943 0-52.206 17.7387-57.962 36.7212l-2.842-31.8568h-41.968v240.7338h47.287v-64.444c3.716 15.252 25.903 30.467 56.76 30.467 66.998 0 92.572-52.119 92.572-104.567 0-48.681-26.412-107.0908-93.81-107.0908zm-1.493 168.5722c-36.395 0-52.68-30.613-52.68-61.262 0-30.65 17.414-63.238 52.68-63.238 35.265 0 52.315 32.222 52.315 63.238 0 31.015-16.285 61.262-52.315 61.262z"/></g></g></svg>