<svg width="90" height="31" viewBox="0 0 90 31" fill="none" xmlns="http://www.w3.org/2000/svg">
<path d="M25.5281 5.99388V30.2452H0.762884V5.99388H25.5281ZM26.2907 5.23438H0.00025177V30.9996H26.2907V5.23438Z" fill="white"/>
<path d="M26.2982 5.99136H51.5718V30.2452H26.2982V5.99136ZM25.5356 5.23438V30.9996H52.3345V5.23438H25.5356Z" fill="white"/>
<path d="M77.1099 5.99388V30.2452H52.3549V5.99388H77.1099ZM77.8726 5.23438H51.5922V30.9996H77.8726V5.23438Z" fill="white"/>
<path d="M14.3986 10.7047C12.5301 10.7097 10.6566 11.3734 10.11 13.228L9.91684 11.0352H6.98325V25.1909H10.288V16.4704C10.288 14.9589 11.5718 13.6418 13.1631 13.6317C14.8002 13.614 16.0357 14.8151 16.0357 16.6092V25.1909H19.3862V16.6546C19.3404 13.2835 18.1812 10.6946 14.396 10.7022L14.3986 10.7047Z" fill="white"/>
<path d="M69.2216 11.0409C65.8152 10.0972 64.0663 11.8685 63.6951 13.2311L63.4994 11.0359H60.5683V25.1789H63.8731V16.6451C63.8731 14.5735 65.7263 13.4961 67.1829 13.6525C68.3523 13.7787 68.8073 14.1294 69.2216 14.354V11.0409Z" fill="white"/>
<path d="M39.6545 10.6969C37.7047 10.6969 36.0117 11.9207 35.61 13.2302L35.4117 11.0325H32.4832V27.6407H35.7829V23.1947C36.0422 24.2469 37.5903 25.2966 39.7435 25.2966C44.4184 25.2966 46.203 21.7009 46.203 18.0825C46.203 14.724 44.3599 10.6943 39.657 10.6943L39.6545 10.6969ZM39.5503 22.3267C37.0107 22.3267 35.8744 20.2147 35.8744 18.1002C35.8744 15.9857 37.0895 13.7374 39.5503 13.7374C42.011 13.7374 43.2007 15.9604 43.2007 18.1002C43.2007 20.2399 42.0644 22.3267 39.5503 22.3267Z" fill="white"/>
<path d="M87.4811 0H78.0043C76.6121 0 75.4853 1.13216 75.4853 2.53108V14.7212H87.4811C88.8733 14.7212 90 13.5891 90 12.1901V2.53108C90 1.13216 88.8733 0 87.4811 0ZM87.4533 8.45865H83.8138V12.1529H81.687V8.45865H78.029V6.26567H81.687V2.57141H83.8138V6.26567H87.4533V8.45865Z" fill="white"/>
</svg>
